<?xml version="1.0" encoding="UTF-8" standalone="no"?>
<!DOCTYPE svg PUBLIC "-//W3C//DTD SVG 1.1//EN" "http://www.w3.org/Graphics/SVG/1.1/DTD/svg11.dtd">
<svg width="100%" height="100%" viewBox="0 0 428 650" version="1.1" xmlns="http://www.w3.org/2000/svg" xmlns:xlink="http://www.w3.org/1999/xlink" xml:space="preserve" xmlns:serif="http://www.serif.com/" style="fill-rule:evenodd;clip-rule:evenodd;stroke-linejoin:round;stroke-miterlimit:1.41421;">
    <g transform="matrix(-1.00434,-0.523252,0.30528,-0.58596,242.622,955.539)">
        <ellipse cx="215.666" cy="507.761" rx="119.765" ry="111.633" style="fill:rgb(51,51,51);fill-opacity:0.0627451;"/>
    </g>
    <g id="Artboard1" transform="matrix(1,0,0,1,-447.063,-54.6901)">
        <rect x="447.063" y="54.69" width="427.889" height="649.809" style="fill:none;"/>
        <g transform="matrix(0.252598,0,0,0.253013,601.25,500.322)">
            <path d="M494.295,555.054L418.991,555.054L418.991,681.777L666.182,681.777C659.636,628.777 577.402,607.7 555.714,599.757C519.006,586.313 508.38,595.852 494.295,555.054Z" style="fill:rgb(164,200,216);"/>
        </g>
        <g transform="matrix(1.31598,0,0,1,-189.276,3.30386)">
            <path d="M674.661,382.199L595.647,382.199L595.647,637.392C625.209,637.392 611.653,638.089 612.703,637.392C613.139,637.103 636.18,438.757 637.807,439.66C640.194,440.986 677.858,633.003 679.935,637.392C679.972,637.468 682.075,638.286 698.688,637.392L674.661,382.199Z" style="fill:rgb(164,216,190);"/>
        </g>
        <g transform="matrix(0.985563,0,0,1.08452,-6.207,-27.616)">
            <path d="M710.997,274.014C710.997,259.061 697.638,246.921 681.184,246.921L621.558,246.921C605.103,246.921 595.811,259.061 595.811,274.014L601.215,359.745C602.201,375.382 610.119,382.029 610.841,382.029L714.862,382.029C719.433,377.199 722.877,372.771 721.31,359.745L710.997,274.014Z" style="fill:rgb(111,96,83);"/>
        </g>
        <g transform="matrix(-1.02784,0.00398853,-0.00402208,-1.03649,1296.13,482.162)">
            <path d="M632.019,196.872L685.276,231.079L600.112,230.751C605.02,221.617 632.019,196.872 632.019,196.872Z" style="fill:rgb(216,180,164);"/>
        </g>
        <g transform="matrix(2.43335,0,0,0.44085,-909.712,132.696)">
            <path d="M646.236,194.04C641.097,162.545 621.941,89.03 617.455,63.59L617.455,255.974L652.944,255.974C650.38,240.742 647.994,210.271 646.236,194.04Z" style="fill:rgb(216,180,164);"/>
        </g>
        <g transform="matrix(1.42071,-0.0406373,0.0285918,0.999591,-249.46,43.45)">
            <path d="M588.227,149.318C590.675,155.012 591.215,156.854 591.676,160.363C592.28,164.964 593.265,166.084 590.793,166.084C586.436,166.084 582.104,162.029 581.671,158.05C581.004,151.92 585.955,144.035 588.227,149.318Z" style="fill:rgb(216,180,164);"/>
        </g>
        <g transform="matrix(-0.572123,0.433973,0.393787,0.519145,940.398,-162.3)">
            <path d="M588.227,149.318C590.675,155.012 591.215,156.854 591.676,160.363C592.28,164.964 592.627,164.427 590.793,166.084C580.743,175.157 576.864,170.468 581.671,158.05C583.897,152.3 585.955,144.035 588.227,149.318Z" style="fill:rgb(216,180,164);"/>
        </g>
        <g transform="matrix(0.803968,0.0954626,-0.100827,0.849146,132.862,-33.8128)">
            <path d="M661.324,128.713L582.303,161.106C608.977,212.36 623.966,211.609 643.557,219.655C749.317,263.088 661.324,128.713 661.324,128.713Z" style="fill:rgb(216,180,164);"/>
        </g>
        <g transform="matrix(1,0,0,1,-3.0526,10.5625)">
            <path d="M659.93,116.891C666.29,99.628 610.288,88.028 589.034,116.891C574.707,136.347 576.445,148.542 589.034,157.625C589.034,157.625 626.046,132.967 651.67,134.196C659.997,134.595 666.627,146.417 677.118,145.735L659.93,116.891Z" style="fill:rgb(51,51,51);"/>
        </g>
        <g transform="matrix(0.252598,0,0,0.253013,489.778,500.715)">
            <path d="M494.295,555.054L418.991,555.054L418.991,681.777L666.182,681.777C659.636,628.777 577.402,607.7 555.714,599.757C519.006,586.313 508.38,595.852 494.295,555.054Z" style="fill:rgb(164,200,216);"/>
        </g>
        <g transform="matrix(0.346206,-1.49667,0.908771,0.210214,274.332,1298.42)">
            <clipPath id="_clip1">
                <rect x="717.856" y="187.504" width="54.665" height="86.926"/>
            </clipPath>
            <g clip-path="url(#_clip1)">
                <path d="M763.759,265.26C765.703,265.781 771.077,264.069 772.578,263.442C784.136,258.615 814.337,240.212 813.45,239.484C810.245,247.701 785.753,245.784 764.855,240.23C760.863,239.169 760.975,239.445 756.126,236.715C752.66,234.763 749.849,233.387 746.809,230.367C742.627,226.211 737.732,223.556 736.272,219.897C732.103,209.446 732.714,211.812 730.61,212.414L716.69,217.717C716.557,219.39 715.277,225.927 715.381,227.856C715.458,229.297 710.742,203.496 712.28,205.775C713.772,207.988 721.199,221.734 715.712,218.09C714.463,217.261 734.762,251.747 737.859,253.756C741.962,256.419 744.133,258.499 747.766,259.887C752.993,261.882 753.947,262.974 757.528,263.614C758.176,263.729 762.118,264.82 763.759,265.26Z" style="fill:rgb(216,180,164);"/>
            </g>
        </g>
        <g transform="matrix(1,0,0,0.972158,-11.1003,0.826426)">
            <path d="M731.349,252.464C723.742,252.604 713.342,255.244 709.602,255.821C707.543,256.139 702.369,255.821 697.409,255.821C692.832,255.821 689.115,259.537 689.115,264.115L689.115,280.702C689.115,285.28 692.832,288.996 697.409,288.996C698.597,286.835 702.338,290.565 707.216,288.996C716.847,285.898 730.33,280.852 733.27,280.702C733.221,279.69 733.367,279.767 733.27,278.256C732.779,270.661 731.572,256.705 731.349,252.464Z" style="fill:rgb(111,96,83);"/>
        </g>
        <g transform="matrix(1,0,0,1,-2.66683,0.780003)">
            <path d="M786.735,168.504C782.172,175.745 779.884,183.382 781.938,163.962C782.03,163.087 781.714,162.251 781.595,161.472C781.132,158.433 779.437,155.556 776.067,157.814L774.685,172.265C773.676,172.462 772.055,149.936 766.589,154.683C763.185,157.638 768.55,177.155 768.015,175.84C766.781,172.805 759.097,151.688 756.292,161.472C755.876,162.923 760.861,178.9 761.225,179.468C764.633,184.786 749.17,160.696 749.322,175.84L761.225,190.671C761.225,194.419 764.268,197.906 768.015,197.906L781.595,197.906C785.342,197.906 792.912,185.499 793.346,170.309C795.141,165.331 789.677,166.545 786.735,168.504Z" style="fill:rgb(216,180,164);"/>
        </g>
        <g transform="matrix(0.835115,1.02272e-16,1.10353e-16,-0.901101,-76.0253,578.388)">
            <path d="M787.674,167.897C783.111,175.139 782.884,183.512 784.937,164.093C785.03,163.218 785.056,162.251 784.937,161.472C784.474,158.433 782.48,157.969 779.11,160.227L774.685,172.265C775.172,171.622 774.086,152.837 771.765,154.853C768.36,157.809 768.21,177.246 768.015,175.84C766.451,164.547 765.699,160.237 763.299,160.227C758.99,160.209 759.765,173.724 761.225,179.468C762.419,184.163 758.607,170.076 754.305,170.876C753.534,171.02 753.014,172.312 753.05,175.84C756.631,182.503 759.288,187.448 761.225,191.053C761.225,194.801 764.268,197.906 768.015,197.906L781.595,197.906C781.835,197.981 785.658,185.653 793.346,170.309C795.141,165.331 790.616,165.938 787.674,167.897Z" style="fill:rgb(216,180,164);"/>
        </g>
        <g transform="matrix(1,0,0,1,-1.13702,-5.05689)">
            <path d="M581.744,403.701C581.829,388.731 582.227,305.436 579.22,305.436L559.947,305.436C556.939,305.436 559.947,378.543 559.947,403.701C559.947,406.708 562.389,409.15 565.396,409.15L579.22,409.15C582.227,409.15 581.744,406.708 581.744,403.701Z" style="fill:rgb(216,180,164);"/>
        </g>
        <g transform="matrix(1.29904,0,0,0.996776,-178.558,-8.9753)">
            <path d="M593.135,258.531C589.923,258.531 593.387,258.531 587.797,258.531L574.413,258.531C568.824,258.531 561.239,261.986 561.239,267.575C561.239,281.897 558.998,313.069 565.083,312.168L583.008,313.398C588.597,313.398 593.135,308.86 593.135,303.271L593.135,258.531Z" style="fill:rgb(111,96,83);"/>
        </g>
    </g>
</svg>
